<svg xmlns="http://www.w3.org/2000/svg" width="20" height="21" viewBox="0 0 20 21" fill="none" class="mx-2 vertical-align-middle">
    <g clip-path="url(#clip0_103_815)">
        <path
        d="M20 2.99998V14.7C20 16.55 18.7575 18.1975 16.9783 18.7066L11.3733 20.3075C10.475 20.5641 9.525 20.5641 8.62667 20.3075L3.02167 18.7066C1.2425 18.1983 0 16.5508 0 14.7V3.83332C0.005 2.74332 1.66167 2.74415 1.66667 3.83332V14.7C1.66667 15.8108 2.4125 16.7992 3.48 17.1041L9.085 18.705C9.68417 18.8758 10.3167 18.8758 10.9167 18.705L16.5208 17.1041C17.5883 16.7992 18.3342 15.8108 18.3342 14.7V2.99998C18.3392 1.90998 19.995 1.91082 20 2.99998ZM3.33333 12.9475V3.83332C3.33333 2.77748 3.81667 1.80748 4.65917 1.17248C5.50167 0.536649 6.56667 0.338316 7.5825 0.628316L9.02083 1.03915C9.3925 1.14498 9.725 1.33415 10.0008 1.58165C10.2767 1.33415 10.6092 1.14498 10.9808 1.03915L12.4183 0.628316C14.4692 -0.0200173 16.7275 1.68498 16.6675 3.83332V12.9475C16.6675 14.4275 15.6733 15.7458 14.25 16.1525L11.3742 16.9741C10.475 17.2308 9.525 17.2308 8.6275 16.9741L5.75167 16.1525C4.32833 15.7458 3.33333 14.4275 3.33333 12.9475ZM10.8333 15.3941C10.8608 15.3866 13.7908 14.55 13.7908 14.55C14.5025 14.3467 15 13.6875 15 12.9475V3.83332C15 3.30582 14.7583 2.82082 14.3375 2.50248C13.9142 2.18248 13.3783 2.08665 12.8758 2.22998L11.4383 2.64082C11.0825 2.74248 10.8333 3.07165 10.8333 3.44165V15.3941ZM5 12.9475C5 13.6875 5.4975 14.3467 6.20917 14.55C6.20917 14.55 9.13917 15.3866 9.16667 15.3941V3.44248C9.16667 3.07248 8.91833 2.74332 8.5625 2.64165L7.12417 2.23082C6.62167 2.08665 6.085 2.18332 5.6625 2.50332C5.24167 2.82082 5 3.30582 5 3.83415V12.9475Z"
        fill="#2F343B"
        />
    </g>
    <defs>
        <clipPath id="clip0_103_815">
        <rect width="20" height="20" fill="white" transform="translate(0 0.5)" />
        </clipPath>
    </defs>
</svg>
