<svg xmlns="http://www.w3.org/2000/svg" width="20" height="21" viewBox="0 0 20 21" fill="none" class="mx-2 vertical-align-middle">
    <g clip-path="url(#clip0_103_843)">
        <path
        d="M9.92017 13.8334C10.6102 13.8334 11.1702 14.3934 11.1702 15.0834C11.1702 15.7734 10.6102 16.3334 9.92017 16.3334C9.23017 16.3334 8.67017 15.7734 8.67017 15.0834C8.67017 14.3934 9.23017 13.8334 9.92017 13.8334ZM10.7535 12.1667C10.7535 11.6992 11.0935 11.1459 11.5268 10.9067C12.7768 10.2183 13.4493 8.80418 13.201 7.38752C12.9652 6.04335 11.8618 4.93918 10.5168 4.70335C9.53184 4.53335 8.53351 4.79668 7.77601 5.43168C7.02017 6.06752 6.58601 6.99752 6.58601 7.98418C6.58601 8.44502 6.95934 8.81752 7.41934 8.81752C7.87934 8.81752 8.25267 8.44502 8.25267 7.98418C8.25267 7.49085 8.46934 7.02585 8.84767 6.70752C9.23184 6.38585 9.72434 6.25585 10.2285 6.34502C10.8843 6.46002 11.4435 7.02002 11.5585 7.67502C11.686 8.40085 11.3577 9.09585 10.7218 9.44585C9.75851 9.97668 9.08601 11.095 9.08601 12.1658C9.08601 12.6267 9.45934 12.9992 9.91934 12.9992C10.3793 12.9992 10.7527 12.6267 10.7527 12.1658L10.7535 12.1667ZM20.0002 16.3334V10.7833C20.0002 5.38418 15.9135 0.878349 10.6968 0.523349C7.80101 0.331683 4.96767 1.38835 2.92434 3.43418C0.881006 5.48085 -0.175661 8.31502 0.0251724 11.2117C0.391839 16.5067 5.06851 20.5 10.9035 20.5H15.8343C18.1318 20.5 20.0002 18.6309 20.0002 16.3334ZM10.5843 2.18668C14.9302 2.48168 18.3335 6.25752 18.3335 10.7825V16.3325C18.3335 17.7109 17.2118 18.8325 15.8335 18.8325H10.9027C5.87351 18.8325 1.99767 15.5792 1.68684 11.0958C1.51934 8.68002 2.39934 6.31668 4.10267 4.61168C5.67101 3.04085 7.79851 2.16668 10.0127 2.16668C10.2027 2.16668 10.3935 2.17335 10.5835 2.18585L10.5843 2.18668Z"
        fill="#2F343B"
        />
    </g>
    <defs>
        <clipPath id="clip0_103_843">
        <rect width="20" height="20" fill="white" transform="translate(0 0.5)" />
        </clipPath>
    </defs>
</svg>
