 <svg xmlns="http://www.w3.org/2000/svg" width="124" height="125" viewBox="0 0 124 125" fill="none">
    <path d="M112.205 89.609L113.63 90.4715C114.066 90.7363 114.567 90.8762 115.078 90.8762C115.588 90.8762 116.089 90.7363 116.525 90.4715L117.95 89.609L117.086 91.034C116.821 91.4704 116.681 91.9711 116.681 92.4815C116.681 92.9919 116.821 93.4926 117.086 93.929L117.95 95.354L116.525 94.4896C116.089 94.2249 115.588 94.0849 115.078 94.0849C114.567 94.0849 114.066 94.2249 113.63 94.4896L112.205 95.354L113.068 93.929C113.332 93.4926 113.472 92.9919 113.472 92.4815C113.472 91.9711 113.332 91.4704 113.068 91.034L112.205 89.609Z" fill="#94E3FF"/>
    <path d="M112.206 95.729C112.139 95.7291 112.074 95.7114 112.016 95.6779C111.959 95.6443 111.911 95.5961 111.879 95.5381C111.846 95.4801 111.829 95.4144 111.83 95.3479C111.831 95.2813 111.85 95.2163 111.885 95.1594L112.749 93.7344C112.979 93.3569 113.101 92.9235 113.101 92.4815C113.101 92.0395 112.979 91.6061 112.749 91.2286L111.885 89.8036C111.841 89.7318 111.823 89.6475 111.833 89.5641C111.843 89.4806 111.881 89.403 111.94 89.3436C111.999 89.2842 112.077 89.2465 112.16 89.2364C112.244 89.2264 112.328 89.2447 112.4 89.2884L113.825 90.1527C114.202 90.3827 114.636 90.5043 115.078 90.5043C115.52 90.5043 115.953 90.3827 116.331 90.1527L117.756 89.2884C117.827 89.2447 117.912 89.2264 117.995 89.2364C118.079 89.2465 118.156 89.2842 118.216 89.3436C118.275 89.403 118.313 89.4806 118.323 89.5641C118.333 89.6475 118.315 89.7318 118.271 89.8036L117.407 91.2286C117.177 91.6061 117.055 92.0395 117.055 92.4815C117.055 92.9235 117.177 93.3569 117.407 93.7344L118.271 95.1594C118.315 95.2311 118.333 95.3155 118.323 95.3989C118.313 95.4823 118.275 95.56 118.216 95.6194C118.156 95.6788 118.079 95.7165 117.995 95.7265C117.912 95.7365 117.827 95.7183 117.756 95.6746L116.331 94.8102C115.953 94.5803 115.52 94.4587 115.078 94.4587C114.636 94.4587 114.202 94.5803 113.825 94.8102L112.4 95.6746C112.341 95.7101 112.274 95.7289 112.206 95.729ZM113.32 90.7239L113.39 90.8397C113.692 91.3344 113.851 91.9025 113.851 92.4817C113.851 93.0609 113.692 93.6289 113.39 94.1236L113.32 94.2391L113.436 94.169C113.931 93.8677 114.499 93.7083 115.078 93.7083C115.657 93.7083 116.225 93.8677 116.72 94.169L116.835 94.2391L116.765 94.1236C116.464 93.6289 116.305 93.0609 116.305 92.4817C116.305 91.9025 116.464 91.3344 116.765 90.8397L116.835 90.7239L116.72 90.794C116.225 91.0953 115.657 91.2547 115.078 91.2547C114.499 91.2547 113.931 91.0953 113.436 90.794L113.32 90.7239Z" fill="#3B5C91"/>
    <path d="M115.078 9.63121L116.697 9.23484C117.192 9.11343 117.645 8.85838 118.006 8.49744C118.367 8.13651 118.622 7.6835 118.744 7.18771L119.14 5.56921L119.537 7.18771C119.658 7.68346 119.913 8.13643 120.274 8.49736C120.635 8.85829 121.088 9.11337 121.584 9.23484L123.203 9.63121L121.584 10.0276C121.088 10.149 120.635 10.404 120.274 10.7649C119.913 11.1258 119.658 11.5787 119.537 12.0743L119.14 13.6928L118.744 12.0743C118.622 11.5785 118.367 11.1255 118.006 10.7646C117.645 10.4037 117.192 10.1486 116.697 10.0272L115.078 9.63121Z" fill="#FFD385"/>
    <path d="M119.14 14.0682C119.056 14.0682 118.974 14.04 118.908 13.9882C118.842 13.9364 118.795 13.864 118.775 13.7825L118.379 12.164C118.275 11.7346 118.054 11.3421 117.742 11.0296C117.43 10.7171 117.037 10.4966 116.608 10.3921L114.989 9.99533C114.908 9.97528 114.836 9.92852 114.784 9.86251C114.732 9.79651 114.704 9.71507 114.704 9.63121C114.704 9.54735 114.732 9.46591 114.784 9.3999C114.836 9.3339 114.908 9.28713 114.989 9.26708L116.608 8.87071C117.038 8.76635 117.43 8.5458 117.743 8.23321C118.055 7.92062 118.276 7.52804 118.38 7.09846L118.777 5.47996C118.796 5.39836 118.843 5.3258 118.909 5.27393C118.975 5.22205 119.057 5.19385 119.141 5.19385C119.225 5.19385 119.306 5.22205 119.373 5.27393C119.439 5.3258 119.485 5.39836 119.505 5.47996L119.902 7.09846C120.006 7.52801 120.226 7.92058 120.539 8.23317C120.851 8.54577 121.244 8.76633 121.673 8.87071L123.292 9.26708C123.373 9.28713 123.446 9.3339 123.497 9.3999C123.549 9.46591 123.577 9.54735 123.577 9.63121C123.577 9.71507 123.549 9.79651 123.497 9.86251C123.446 9.92852 123.373 9.97528 123.292 9.99533L121.673 10.3921C121.244 10.4964 120.851 10.7169 120.539 11.0294C120.226 11.3419 120.006 11.7345 119.902 12.164L119.505 13.7825C119.485 13.8642 119.438 13.9368 119.372 13.9887C119.306 14.0405 119.224 14.0685 119.14 14.0682ZM116.654 9.63121L116.785 9.66346C117.348 9.8002 117.863 10.0892 118.272 10.4987C118.682 10.9083 118.971 11.4226 119.107 11.9855L119.14 12.1171L119.172 11.9855C119.309 11.4226 119.598 10.9083 120.007 10.4988C120.417 10.0892 120.931 9.80024 121.494 9.66346L121.625 9.63121L121.494 9.59896C120.931 9.46222 120.417 9.17325 120.007 8.7637C119.598 8.35414 119.309 7.83979 119.172 7.27696L119.14 7.14533L119.107 7.27696C118.971 7.83989 118.682 8.35437 118.272 8.76401C117.863 9.17365 117.348 9.46264 116.785 9.59933L116.654 9.63121Z" fill="#3B5C91"/>
    <path d="M0.920846 33.2772L2.24122 38.2051C2.29188 38.394 2.39137 38.5663 2.52971 38.7046C2.66804 38.8429 2.84034 38.9424 3.0293 38.993C3.21825 39.0436 3.4172 39.0436 3.60615 38.993C3.7951 38.9423 3.96739 38.8429 4.10572 38.7046L7.71322 35.0971C7.85153 34.9587 7.951 34.7864 8.00163 34.5975C8.05226 34.4085 8.05226 34.2096 8.00164 34.0206C7.95102 33.8317 7.85156 33.6594 7.71325 33.5211C7.57494 33.3827 7.40266 33.2832 7.21372 33.2326L2.2851 31.9118C2.09613 31.8613 1.89721 31.8614 1.7083 31.9121C1.5194 31.9629 1.34717 32.0624 1.20892 32.2008C1.07067 32.3391 0.971266 32.5115 0.9207 32.7004C0.870134 32.8893 0.870184 33.0883 0.920846 33.2772Z" fill="#79DDFF"/>
    <path d="M3.32372 39.4074C3.19126 39.4072 3.05939 39.3897 2.93147 39.3553C2.67822 39.2889 2.44717 39.1564 2.26206 38.9713C2.07694 38.7862 1.94442 38.5552 1.87809 38.3019L0.55772 33.3744C0.489921 33.1217 0.489874 32.8556 0.557584 32.6029C0.625293 32.3502 0.758371 32.1198 0.943425 31.9348C1.12848 31.7499 1.35898 31.617 1.61173 31.5494C1.86449 31.4819 2.13057 31.4821 2.38322 31.55L7.31109 32.8704C7.56361 32.9381 7.79385 33.0711 7.97869 33.256C8.16353 33.4409 8.29645 33.6711 8.3641 33.9237C8.43174 34.1762 8.43173 34.4421 8.36406 34.6946C8.29639 34.9471 8.16345 35.1774 7.9786 35.3623L4.37109 38.9698C4.23412 39.1083 4.07103 39.2184 3.89124 39.2935C3.71146 39.3686 3.51856 39.4073 3.32372 39.4074ZM1.28222 33.1801L2.60259 38.108C2.63616 38.2335 2.70218 38.3479 2.79399 38.4397C2.8858 38.5315 3.00017 38.5976 3.12561 38.6312C3.25104 38.6648 3.38311 38.6647 3.50854 38.6311C3.63396 38.5975 3.74831 38.5314 3.84009 38.4395L7.44759 34.832C7.53946 34.7402 7.60553 34.6259 7.63918 34.5005C7.67282 34.375 7.67284 34.243 7.63924 34.1175C7.60564 33.9921 7.5396 33.8777 7.44776 33.7859C7.35593 33.6941 7.24154 33.6281 7.11609 33.5945L2.18822 32.2741C2.06283 32.2405 1.93078 32.2404 1.80536 32.2739C1.67993 32.3075 1.56556 32.3735 1.47375 32.4653C1.38195 32.5571 1.31594 32.6715 1.28238 32.7969C1.24882 32.9223 1.2489 33.0544 1.28259 33.1798L1.28222 33.1801Z" fill="#3B5C91"/>
    <path d="M72.6294 122.979L73.466 117.946C73.4981 117.753 73.4788 117.555 73.4101 117.372C73.3414 117.189 73.2256 117.027 73.0745 116.903C72.9234 116.778 72.7423 116.696 72.5492 116.664C72.3562 116.632 72.1582 116.651 71.975 116.72L67.1986 118.512C67.0155 118.58 66.8536 118.696 66.7293 118.847C66.6051 118.998 66.5227 119.18 66.4907 119.372C66.4586 119.565 66.4779 119.764 66.5466 119.947C66.6153 120.13 66.731 120.292 66.8821 120.416L70.8208 123.657C70.9718 123.781 71.1531 123.864 71.3462 123.896C71.5394 123.928 71.7377 123.909 71.921 123.84C72.1044 123.772 72.2664 123.656 72.3908 123.505C72.5151 123.353 72.5974 123.172 72.6294 122.979Z" fill="#FF9494"/>
    <path d="M71.5251 124.287C71.1812 124.287 70.8483 124.166 70.5839 123.946L66.6437 120.705C66.4419 120.539 66.2872 120.323 66.1954 120.078C66.1036 119.834 66.0779 119.569 66.1207 119.311C66.1636 119.053 66.2736 118.811 66.4397 118.609C66.6057 118.407 66.822 118.253 67.0667 118.161L71.8435 116.369C72.0883 116.277 72.3529 116.251 72.6108 116.294C72.8687 116.337 73.1107 116.447 73.3126 116.613C73.5145 116.779 73.6692 116.996 73.761 117.24C73.8528 117.485 73.8786 117.75 73.8358 118.008L72.9996 123.04C72.9581 123.299 72.8486 123.541 72.6824 123.743C72.5161 123.946 72.299 124.1 72.0535 124.19C71.8847 124.254 71.7056 124.287 71.5251 124.287ZM72.3692 117.023C72.2796 117.023 72.1906 117.039 72.1067 117.071L67.3304 118.863C67.2088 118.908 67.1013 118.985 67.0188 119.085C66.9363 119.186 66.8817 119.306 66.8604 119.434C66.8391 119.562 66.8519 119.693 66.8976 119.815C66.9432 119.937 67.02 120.044 67.1204 120.126L71.0605 123.367C71.1607 123.449 71.281 123.504 71.4092 123.526C71.5373 123.547 71.6689 123.534 71.7905 123.489C71.9122 123.443 72.0197 123.366 72.1022 123.266C72.1847 123.165 72.2393 123.045 72.2605 122.917L73.0967 117.884C73.1144 117.779 73.1088 117.67 73.0805 117.567C73.0522 117.463 73.0017 117.367 72.9326 117.285C72.8635 117.203 72.7774 117.137 72.6802 117.092C72.5831 117.046 72.4772 117.022 72.37 117.022L72.3692 117.023Z" fill="#3B5C91"/>
    <path d="M4.48594 104.922L5.92444 103.484C6.08228 103.326 6.17097 103.112 6.171 102.889C6.17104 102.665 6.08241 102.451 5.92463 102.294C5.76684 102.136 5.55281 102.047 5.32963 102.047C5.10645 102.047 4.8924 102.136 4.73456 102.293L3.29606 103.732L1.85831 102.293C1.70048 102.136 1.48642 102.047 1.26324 102.047C1.04006 102.047 0.826039 102.136 0.668251 102.294C0.510464 102.451 0.42184 102.665 0.421875 102.889C0.42191 103.112 0.510601 103.326 0.668438 103.484L2.10694 104.922L0.668438 106.36C0.518658 106.52 0.43681 106.731 0.440236 106.95C0.443662 107.168 0.532091 107.377 0.68679 107.532C0.841488 107.686 1.0503 107.775 1.26898 107.778C1.48767 107.781 1.69904 107.699 1.85831 107.549L3.29681 106.111L4.73456 107.549C4.89329 107.703 5.10583 107.787 5.32642 107.785C5.54702 107.783 5.75803 107.695 5.91402 107.539C6.07001 107.383 6.15851 107.172 6.16046 106.951C6.16241 106.731 6.07765 106.518 5.92444 106.359L4.48594 104.922Z" fill="#FF9494"/>
    <path d="M54.3251 3.27121H52.5033V1.44946C52.4989 1.25252 52.4176 1.06512 52.2768 0.927382C52.1359 0.789647 51.9467 0.712524 51.7498 0.712524C51.5528 0.712524 51.3636 0.789647 51.2227 0.927382C51.0819 1.06512 51.0006 1.25252 50.9962 1.44946V3.27121H49.1744C48.9775 3.27561 48.7901 3.35693 48.6524 3.49777C48.5146 3.63861 48.4375 3.82778 48.4375 4.02478C48.4375 4.22177 48.5146 4.41094 48.6524 4.55178C48.7901 4.69262 48.9775 4.77394 49.1744 4.77834H50.9962V6.59934C50.9939 6.69971 51.0118 6.79952 51.0487 6.89291C51.0855 6.98629 51.1407 7.07137 51.2109 7.14315C51.2811 7.21493 51.3649 7.27197 51.4574 7.3109C51.55 7.34984 51.6494 7.3699 51.7498 7.3699C51.8502 7.3699 51.9495 7.34984 52.0421 7.3109C52.1346 7.27197 52.2184 7.21493 52.2886 7.14315C52.3588 7.07137 52.414 6.98629 52.4509 6.89291C52.4877 6.79952 52.5056 6.69971 52.5033 6.59934V4.77834H54.3251C54.4254 4.78058 54.5252 4.76274 54.6186 4.72588C54.712 4.68901 54.7971 4.63387 54.8689 4.56367C54.9407 4.49347 54.9977 4.40964 55.0366 4.3171C55.0756 4.22456 55.0956 4.12517 55.0956 4.02478C55.0956 3.92438 55.0756 3.82499 55.0366 3.73245C54.9977 3.63991 54.9407 3.55608 54.8689 3.48588C54.7971 3.41569 54.712 3.36054 54.6186 3.32367C54.5252 3.28681 54.4254 3.26897 54.3251 3.27121Z" fill="#FF9494"/>
    <g style="mix-blend-mode:multiply">
    <path d="M112.803 63.0893C112.556 62.3442 112.09 61.6905 111.467 61.2132C110.843 60.7359 110.091 60.457 109.307 60.4126C109.254 60.4096 109.201 60.4077 109.148 60.4069C109.135 60.4069 109.121 60.4069 109.107 60.4069C108.667 60.3826 108.271 60.0766 108.122 59.6457C108.074 59.5076 108.053 59.3615 108.061 59.2156C108.071 59.0573 108.112 58.9026 108.184 58.7613C108.256 58.62 108.357 58.495 108.479 58.3943C109.086 57.8927 109.527 57.2197 109.746 56.4634C109.965 55.707 109.95 54.9023 109.705 54.1542C109.459 53.4062 108.994 52.7495 108.37 52.2698C107.745 51.7902 106.991 51.5099 106.205 51.4654C106.162 51.4632 106.119 51.4609 106.077 51.4602H106.04C105.875 51.4516 105.714 51.4073 105.569 51.3305C105.423 51.2536 105.296 51.146 105.196 51.0151L105.083 50.8696L105.024 50.6989C104.95 50.4786 104.944 50.241 105.008 50.0175C105.072 49.794 105.203 49.5952 105.382 49.4476C105.99 48.9463 106.433 48.2733 106.652 47.5164C106.872 46.7595 106.858 45.9541 106.612 45.2053C106.367 44.4565 105.901 43.7992 105.276 43.3194C104.651 42.8395 103.895 42.5594 103.109 42.5157C103.064 42.5131 103.019 42.5116 102.975 42.5104H102.939C102.713 42.4974 102.497 42.4183 102.316 42.2829C102.135 42.1476 101.998 41.9619 101.921 41.7492L101.904 41.6982L101.891 41.6431C101.845 41.4349 101.857 41.218 101.925 41.016C101.993 40.814 102.115 40.6346 102.278 40.4971C102.885 39.9956 103.327 39.3229 103.545 38.5668C103.764 37.8107 103.75 37.0062 103.505 36.2583C103.26 35.5103 102.795 34.8536 102.171 34.3737C101.547 33.8939 100.793 33.6132 100.007 33.5682C99.9635 33.5656 99.9196 33.5641 99.8761 33.5633H99.8416C99.6913 33.5562 99.5439 33.5194 99.408 33.4549C99.272 33.3904 99.1503 33.2996 99.0497 33.1877C98.9491 33.0758 98.8718 32.945 98.8221 32.803C98.7725 32.661 98.7515 32.5105 98.7605 32.3603C98.768 32.2078 98.8072 32.0586 98.8756 31.9222C98.9441 31.7857 99.0402 31.6651 99.158 31.5679C99.7884 31.0552 100.244 30.3591 100.461 29.576C100.679 28.7929 100.647 27.9617 100.371 27.1973C99.8409 25.7273 98.4736 24.7197 96.8888 24.6312C96.3712 24.6023 95.853 24.675 95.3633 24.8453L38.8846 44.4087L34.9917 45.7587L31.4086 46.9977L23.837 46.5766L21.7298 46.4596C20.6967 46.4 19.6813 46.7465 18.9001 47.4252C18.5104 47.7589 18.1911 48.1669 17.9609 48.6254C17.7307 49.0839 17.5941 49.5837 17.5591 50.0956C17.5037 50.9056 17.7013 51.7128 18.1245 52.4056C18.5477 53.0985 19.1757 53.6428 19.9216 53.9633C20.3435 54.1437 20.6093 54.5839 20.5831 55.0579C20.5685 55.29 20.4837 55.5121 20.3398 55.6948C20.1959 55.8775 19.9998 56.012 19.7776 56.0806C19.015 56.3174 18.343 56.7817 17.8518 57.4113C17.3605 58.0409 17.0736 58.8056 17.0293 59.6029C16.9851 60.4002 17.1857 61.192 17.6043 61.8721C18.0228 62.5521 18.6393 63.088 19.3711 63.4077C19.5854 63.499 19.7664 63.6542 19.8894 63.852C20.0124 64.0498 20.0714 64.2808 20.0585 64.5134C20.0456 64.746 19.9614 64.9689 19.8172 65.1519C19.6731 65.3349 19.4761 65.4691 19.253 65.5362C18.4906 65.7731 17.819 66.2374 17.3279 66.8668C16.8369 67.4962 16.5501 68.2607 16.5058 69.0577C16.4615 69.8548 16.662 70.6463 17.0803 71.3262C17.4986 72.0061 18.1147 72.5419 18.8461 72.8618C19.0603 72.9533 19.2412 73.1085 19.3642 73.3064C19.4871 73.5042 19.5461 73.7352 19.5331 73.9678C19.5202 74.2004 19.4359 74.4233 19.2918 74.6064C19.1477 74.7894 18.9507 74.9236 18.7276 74.9907C17.9646 75.2272 17.2922 75.6914 16.8006 76.3211C16.309 76.9508 16.0219 77.7157 15.9776 78.5133C15.9334 79.3109 16.1342 80.103 16.5531 80.7832C16.972 81.4634 17.5889 81.9991 18.3211 82.3186C18.5343 82.4114 18.7141 82.5668 18.8368 82.7643C18.9595 82.9617 19.0193 83.1918 19.0081 83.424C18.9815 83.8984 18.6687 84.306 18.2292 84.4388C17.4521 84.6744 16.7673 85.1457 16.2696 85.7873C15.7719 86.429 15.4858 87.2095 15.4508 88.0208C15.4288 88.5336 15.5091 89.0456 15.6871 89.5269C15.8651 90.0083 16.1373 90.4493 16.4877 90.8243C17.1885 91.5861 18.1594 92.0437 19.193 92.0993L94.9745 96.3106C96.0075 96.3701 97.0229 96.0235 97.8038 95.3446C98.1936 95.0109 98.5129 94.6029 98.7432 94.1445C98.9735 93.6861 99.1102 93.1864 99.1452 92.6746C99.149 92.6183 99.1516 92.5621 99.1527 92.5066C99.1527 92.4968 99.1527 92.4871 99.1527 92.4773C99.1527 92.4297 99.1527 92.382 99.1527 92.3344C99.1527 92.328 99.1527 92.3217 99.1527 92.3153C99.1527 92.2631 99.1505 92.2113 99.146 92.1601C99.146 92.1601 99.146 92.1559 99.146 92.1541C99.1422 92.0985 99.1377 92.0415 99.1317 91.9879C99.0573 91.2969 98.8004 90.6381 98.3874 90.0791C97.9744 89.5201 97.4202 89.081 96.7816 88.8068C96.5726 88.7139 96.3971 88.559 96.2788 88.3632C96.1605 88.1674 96.1051 87.9401 96.1201 87.7118C96.1347 87.4797 96.2195 87.2576 96.3634 87.0749C96.5073 86.8922 96.7034 86.7577 96.9256 86.6892C97.6883 86.4526 98.3605 85.9885 98.8519 85.359C99.3433 84.7296 99.6305 83.9649 99.6749 83.1675C99.7193 82.3702 99.5188 81.5784 99.1003 80.8982C98.6818 80.2181 98.0654 79.6822 97.3336 79.3624C97.1195 79.2712 96.9387 79.1162 96.8157 78.9186C96.6927 78.721 96.6336 78.4904 96.6462 78.258C96.6589 78.0256 96.7428 77.8027 96.8865 77.6196C97.0302 77.4366 97.2267 77.3022 97.4495 77.2347H97.4521H97.4547H97.457C98.0037 77.0651 98.5065 76.7774 98.9297 76.3921C99.353 76.0067 99.6865 75.5331 99.9066 75.0047C100.127 74.4763 100.228 73.906 100.203 73.3341C100.179 72.7622 100.029 72.2027 99.764 71.6952L103.364 70.4487L110.326 68.0371C111.304 67.7003 112.112 66.9946 112.578 66.0705C112.812 65.6135 112.952 65.1145 112.991 64.6026C113.029 64.0907 112.966 63.5763 112.803 63.0893Z" fill="#C1D9E0"/>
    </g>
    <path d="M96.713 69.7118C96.4877 69.5561 96.2441 69.4286 95.9877 69.3323C95.6654 69.2145 95.3871 69.0006 95.1905 68.7194C94.9939 68.4382 94.8884 68.1034 94.8884 67.7603C94.8884 67.4172 94.9939 67.0823 95.1905 66.8012C95.3871 66.52 95.6654 66.306 95.9877 66.1883C96.6329 65.9481 97.1891 65.5164 97.5819 64.9511C97.9747 64.3857 98.1852 63.7138 98.1852 63.0253C98.1852 62.3369 97.9747 61.665 97.5819 61.0996C97.1891 60.5343 96.6329 60.1026 95.9877 59.8624C95.6648 59.7456 95.3859 59.5319 95.1891 59.2505C94.9923 58.9691 94.8872 58.6338 94.8882 58.2904C94.8882 57.5892 95.3213 56.9607 95.9656 56.7263C96.623 56.4862 97.1897 56.0479 97.5872 55.4718C97.9848 54.8958 98.1936 54.2105 98.1848 53.5107C98.1608 51.6732 96.6256 50.1818 94.7622 50.1818H29.0693L91.4457 24.6147C91.8416 24.4517 92.2656 24.368 92.6937 24.3683C94.0025 24.3683 95.1725 25.1325 95.675 26.3153C95.9359 26.9302 95.9995 27.611 95.8568 28.2636C95.7142 28.9162 95.3725 29.5084 94.8788 29.9584C94.6953 30.1272 94.549 30.3323 94.4492 30.5607C94.3494 30.7891 94.2983 31.0359 94.2991 31.2852C94.2986 31.5267 94.346 31.7659 94.4384 31.989C94.5307 32.2122 94.6664 32.4148 94.8374 32.5853C95.0084 32.7559 95.2115 32.8908 95.4349 32.9825C95.6583 33.0742 95.8977 33.1208 96.1392 33.1197H96.1985C96.2333 33.1197 96.269 33.1197 96.3046 33.1197C96.9523 33.1204 97.5847 33.3163 98.1193 33.6819C98.6539 34.0475 99.0659 34.5658 99.3016 35.1691C99.5372 35.7724 99.5854 36.4327 99.4401 37.0639C99.2947 37.695 98.9625 38.2677 98.4867 38.7072C98.2354 38.9406 98.0538 39.2393 97.9624 39.5699C97.871 39.9006 97.8732 40.2501 97.9688 40.5795L97.9951 40.6669L98.0288 40.7494C98.1696 41.0844 98.4058 41.3706 98.7081 41.5722C99.0104 41.7739 99.3653 41.8821 99.7287 41.8834H99.7891C99.8266 41.8834 99.8615 41.8834 99.8982 41.8834C100.536 41.885 101.16 42.0758 101.69 42.4316C102.219 42.7874 102.632 43.2924 102.875 43.8825C103.122 44.4907 103.178 45.1597 103.036 45.8007C102.894 46.4417 102.561 47.0244 102.08 47.4713C101.805 47.7249 101.613 48.0562 101.531 48.4212C101.449 48.7862 101.48 49.1676 101.62 49.5147L101.732 49.7873L101.928 50.0123C102.101 50.2119 102.315 50.372 102.554 50.482C102.794 50.592 103.055 50.6492 103.319 50.6498C103.339 50.6498 103.36 50.6498 103.38 50.6498C103.416 50.6498 103.451 50.6498 103.485 50.6498C104.133 50.6498 104.766 50.8451 105.302 51.2105C105.837 51.5758 106.249 52.094 106.485 52.6975C106.722 53.3009 106.77 53.9616 106.625 54.5931C106.48 55.2246 106.147 55.7976 105.671 56.2373C105.484 56.4096 105.335 56.6188 105.232 56.8516C105.13 57.0844 105.077 57.3359 105.076 57.5903C105.076 57.8269 105.122 58.0613 105.212 58.2803C105.491 58.9594 106.161 59.4158 106.88 59.4158H106.95C106.993 59.4158 107.037 59.4132 107.08 59.4132C107.726 59.4138 108.357 59.6087 108.891 59.9724C109.425 60.3361 109.837 60.8518 110.075 61.4528C110.718 63.0818 109.902 64.956 108.255 65.6314L97.298 70.1224L96.713 69.7118Z" fill="#3B82F6"/>
    <path d="M110.721 61.1896C110.433 60.4596 109.932 59.833 109.284 59.3911C108.635 58.9492 107.869 58.7123 107.084 58.7113C107.031 58.7113 106.977 58.7113 106.925 58.7146H106.883C106.442 58.7146 106.03 58.4311 105.857 58.0093C105.802 57.874 105.773 57.7292 105.773 57.5829C105.774 57.4244 105.807 57.2676 105.871 57.1226C105.935 56.9775 106.028 56.8472 106.145 56.7399C106.722 56.205 107.126 55.5085 107.302 54.7411C107.477 53.9737 107.418 53.1711 107.131 52.438C106.844 51.7049 106.343 51.0753 105.692 50.6314C105.042 50.1874 104.273 49.9498 103.486 49.9494C103.444 49.9494 103.401 49.9494 103.358 49.9494H103.321C103.156 49.9499 102.993 49.9147 102.844 49.8461C102.694 49.7774 102.561 49.677 102.454 49.5519L102.333 49.4128L102.264 49.2455C102.178 49.0298 102.159 48.7928 102.21 48.5661C102.262 48.3394 102.381 48.1338 102.552 47.9765C103.13 47.4423 103.534 46.7463 103.711 45.9792C103.887 45.2121 103.829 44.4096 103.543 43.6763C103.256 42.943 102.756 42.313 102.106 41.8685C101.457 41.4239 100.688 41.1854 99.901 41.1841C99.8564 41.1841 99.8114 41.1841 99.7671 41.1864H99.7296C99.5036 41.1859 99.2828 41.119 99.0946 40.9939C98.9064 40.8688 98.7592 40.6911 98.6714 40.4829L98.6507 40.433L98.635 40.3786C98.5773 40.1733 98.577 39.9561 98.634 39.7506C98.691 39.5451 98.8031 39.3591 98.9582 39.2128C99.5361 38.6784 99.9396 37.9822 100.116 37.2151C100.292 36.4481 100.234 35.6456 99.9473 34.9124C99.661 34.1792 99.1603 33.5493 98.5107 33.1049C97.8611 32.6604 97.0926 32.422 96.3055 32.4208C96.262 32.4208 96.2181 32.4208 96.1746 32.423H96.1401C95.9897 32.4242 95.8405 32.3955 95.7013 32.3386C95.562 32.2817 95.4354 32.1978 95.3288 32.0917C95.2222 31.9855 95.1377 31.8593 95.0802 31.7203C95.0227 31.5813 94.9933 31.4323 94.9937 31.2819C94.9928 31.1292 95.0237 30.9781 95.0845 30.838C95.1452 30.698 95.2345 30.5721 95.3466 30.4685C95.9469 29.9217 96.3624 29.2018 96.5358 28.4084C96.7091 27.6151 96.6316 26.7875 96.3141 26.0401C95.7029 24.6016 94.282 23.6716 92.6946 23.6713C92.1761 23.6715 91.6627 23.7734 91.1834 23.9713L35.8776 46.6419L32.0654 48.2045L25.5479 50.8756H94.7631C96.2489 50.8756 97.4729 52.0618 97.492 53.5198C97.4991 54.0757 97.3333 54.6202 97.0176 55.0779C96.7019 55.5356 96.2517 55.8839 95.7295 56.0746C94.8126 56.408 94.1961 57.2986 94.1961 58.2905C94.195 58.7769 94.3446 59.2517 94.6244 59.6495C94.9024 60.0444 95.2942 60.3453 95.7475 60.512C96.26 60.7028 96.7019 61.0457 97.014 61.4948C97.326 61.9439 97.4932 62.4777 97.4932 63.0245C97.4932 63.5714 97.326 64.1052 97.014 64.5542C96.7019 65.0033 96.26 65.3463 95.7475 65.537C95.2944 65.7039 94.9028 66.0048 94.6247 66.3995C94.3461 66.7978 94.1966 67.2721 94.1966 67.7581C94.1966 68.2442 94.3461 68.7185 94.6247 69.1168C94.9033 69.512 95.2957 69.8129 95.7497 69.9793C95.9525 70.0554 96.1452 70.1562 96.3235 70.2793L96.5991 70.469L97.2175 70.8946L97.912 70.61L101.704 69.0556L108.522 66.2611C109.479 65.8704 110.246 65.121 110.659 64.1728C110.867 63.7045 110.98 63.1996 110.99 62.6874C111.001 62.1753 110.909 61.6661 110.721 61.1896ZM97.3836 69.3301L97.108 69.1404C96.8358 68.9523 96.5415 68.7985 96.2316 68.6825C96.042 68.614 95.8782 68.4888 95.7624 68.3238C95.6465 68.1588 95.5844 67.9622 95.5844 67.7606C95.5844 67.559 95.6465 67.3623 95.7624 67.1974C95.8782 67.0324 96.042 66.9071 96.2316 66.8386C96.8596 66.6028 97.4198 66.216 97.863 65.7124C98.3061 65.2089 98.6185 64.604 98.7726 63.9511C98.8447 63.6473 98.8811 63.3361 98.881 63.0238C98.8783 62.1944 98.6233 61.3855 98.1498 60.7046C97.6763 60.0237 97.0067 59.503 96.2301 59.2119C96.0403 59.1436 95.8763 59.0184 95.7604 58.8533C95.6446 58.6883 95.5826 58.4914 95.5829 58.2898C95.5806 58.0925 95.6389 57.8994 95.7499 57.7363C95.8609 57.5732 96.0192 57.4481 96.2035 57.3778C96.9963 57.0886 97.6796 56.5602 98.1589 55.8657C98.6383 55.1711 98.8899 54.3448 98.8791 53.501C98.8506 51.2885 97.0041 49.4885 94.7631 49.4885H32.5915L39.5357 46.6423L91.7087 25.2568C92.0212 25.1284 92.3557 25.0623 92.6935 25.0621C93.6884 25.0621 94.6322 25.6355 95.0365 26.5865C95.2415 27.069 95.2916 27.6033 95.1797 28.1155C95.0679 28.6277 94.7996 29.0924 94.4121 29.4455C94.1572 29.6793 93.9538 29.9636 93.8149 30.2804C93.676 30.5971 93.6047 30.9394 93.6055 31.2853C93.6049 31.6179 93.6701 31.9474 93.7973 32.2548C93.9246 32.5622 94.1113 32.8414 94.3467 33.0763C94.5822 33.3113 94.8618 33.4975 95.1694 33.624C95.4771 33.7506 95.8067 33.8151 96.1394 33.8139C96.1664 33.8139 96.1937 33.8139 96.2207 33.8139C96.2477 33.8139 96.2766 33.8139 96.3047 33.8139C96.8131 33.8143 97.3095 33.9681 97.7292 34.2551C98.1488 34.542 98.4722 34.9489 98.657 35.4225C98.8418 35.896 98.8795 36.4144 98.7652 36.9097C98.6509 37.4051 98.3899 37.8544 98.0162 38.1991C97.6702 38.5208 97.4203 38.9324 97.2945 39.3878C97.1687 39.8432 97.1719 40.3247 97.3037 40.7784L97.3292 40.8646V40.8744L97.3866 41.0146C97.5789 41.4776 97.904 41.8732 98.3208 42.1517C98.7376 42.4301 99.2276 42.579 99.7289 42.5795C99.7562 42.5795 99.7844 42.5795 99.8121 42.5795C99.8399 42.5795 99.8695 42.5795 99.8984 42.5795C100.405 42.5817 100.9 42.7361 101.318 43.0228C101.735 43.3095 102.058 43.7153 102.242 44.1873C102.426 44.6594 102.465 45.176 102.352 45.6701C102.239 46.1642 101.98 46.6129 101.609 46.958C101.23 47.3079 100.967 47.7646 100.854 48.2676C100.742 48.7706 100.785 49.2959 100.978 49.7739L101.174 50.2524H101.219L101.404 50.4646C101.5 50.5749 101.606 50.6768 101.719 50.7691C102.17 51.138 102.735 51.3393 103.318 51.3388C103.346 51.3388 103.375 51.3388 103.403 51.3388H103.485C103.993 51.3386 104.49 51.4919 104.91 51.7785C105.33 52.0651 105.654 52.4717 105.839 52.9452C106.024 53.4187 106.063 53.9371 105.949 54.4327C105.835 54.9282 105.574 55.3779 105.2 55.7229C104.943 55.9603 104.737 56.2484 104.596 56.569C104.455 56.8897 104.382 57.236 104.381 57.5863C104.381 57.913 104.445 58.2365 104.569 58.5388C104.957 59.486 105.877 60.1055 106.879 60.1055C106.912 60.1055 106.944 60.1055 106.976 60.1033C107.009 60.101 107.045 60.1033 107.079 60.1033C107.586 60.104 108.081 60.2571 108.5 60.5425C108.919 60.828 109.242 61.2327 109.428 61.7041C109.933 62.9818 109.288 64.454 107.99 64.9861L101.299 67.7244L97.3836 69.3301Z" fill="#3B5C91"/>
    <g style="mix-blend-mode:multiply">
    <path d="M98.7711 63.9529C98.6634 64.0582 98.5777 64.1838 98.519 64.3224C98.4603 64.4611 98.4297 64.6101 98.4291 64.7607C98.4291 64.7967 98.431 64.8328 98.4347 64.8687C98.4566 65.0816 98.5377 65.2842 98.6688 65.4535C98.7999 65.6227 98.9758 65.7519 99.1765 65.8264C99.7417 66.0393 100.25 66.3792 100.663 66.8199C101.076 67.2606 101.382 67.7903 101.558 68.3682C101.627 68.5938 101.675 68.8253 101.701 69.0597L97.9086 70.614L97.2141 70.8987L96.5957 70.473L96.3201 70.2833C96.1418 70.1602 95.9491 70.0594 95.7463 69.9833C95.2912 69.8164 94.8984 69.5137 94.621 69.1161C94.3436 68.7186 94.195 68.2454 94.1954 67.7607C94.1943 67.2744 94.3439 66.7998 94.6236 66.402C94.9017 66.0073 95.2933 65.7065 95.7463 65.5395C96.2589 65.3488 96.7008 65.0059 97.0128 64.5568C97.3249 64.1077 97.4921 63.5739 97.4921 63.027C97.4921 62.4802 97.3249 61.9464 97.0128 61.4973C96.7008 61.0482 96.2589 60.7053 95.7463 60.5145C95.293 60.3478 94.9013 60.047 94.6232 59.652C94.3434 59.2542 94.1938 58.7794 94.195 58.293C94.195 57.3012 94.8115 56.4105 95.7283 56.0772C96.2506 55.8864 96.7007 55.5381 97.0164 55.0804C97.3322 54.6227 97.498 54.0783 97.4908 53.5223C97.4717 52.0643 96.2477 50.8782 94.762 50.8782H25.5479L32.0654 48.207L35.8776 46.6444H97.7631C98.3634 46.6444 98.9559 46.78 99.4965 47.041C100.037 47.3021 100.512 47.6818 100.885 48.1519C101.42 48.8212 101.716 49.6499 101.726 50.5065C101.726 50.5955 101.724 50.6839 101.72 50.7717C101.678 51.5373 101.412 52.2736 100.955 52.8895C100.498 53.5054 99.8709 53.9738 99.1506 54.2367C99.0105 54.2879 98.8828 54.368 98.7756 54.4718C98.6656 54.5784 98.5783 54.7062 98.5188 54.8473C98.4594 54.9885 98.429 55.1402 98.4295 55.2934C98.4294 55.331 98.4314 55.3686 98.4355 55.4059C98.4581 55.6181 98.5395 55.8199 98.6704 55.9884C98.8014 56.1569 98.9768 56.2856 99.1768 56.3599C99.9252 56.6385 100.57 57.1393 101.026 57.7951C101.482 58.4509 101.726 59.2304 101.726 60.0289C101.726 60.8275 101.482 61.6069 101.026 62.2627C100.57 62.9185 99.9252 63.4193 99.1768 63.6979C99.0251 63.7533 98.8869 63.8402 98.7711 63.9529Z" fill="#D8D8D8"/>
    </g>
    <path d="M18.8641 94.6553C17.0844 94.6553 15.6181 93.2303 15.5956 91.4783C15.5873 90.8103 15.7867 90.1562 16.1662 89.6064C16.5456 89.0566 17.0865 88.6382 17.714 88.409C18.4186 88.1525 18.8919 87.4658 18.8919 86.7005C18.8898 86.3264 18.7739 85.9619 18.5595 85.6553C18.3451 85.3488 18.0425 85.1148 17.6919 84.9845C17.0762 84.7552 16.5453 84.3431 16.1705 83.8036C15.7956 83.264 15.5947 82.6227 15.5947 81.9657C15.5947 81.3087 15.7956 80.6674 16.1705 80.1279C16.5453 79.5883 17.0762 79.1762 17.6919 78.947C18.0434 78.8182 18.347 78.5845 18.5614 78.2775C18.7758 77.9706 18.8908 77.6052 18.8908 77.2308C18.8908 76.8563 18.7758 76.491 18.5614 76.184C18.347 75.8771 18.0434 75.6434 17.6919 75.5146C17.0762 75.2853 16.5453 74.8733 16.1705 74.3337C15.7956 73.7941 15.5947 73.1528 15.5947 72.4958C15.5947 71.8388 15.7956 71.1976 16.1705 70.658C16.5453 70.1184 17.0762 69.7064 17.6919 69.4771C18.0436 69.3484 18.3473 69.1148 18.5619 68.8079C18.7765 68.5009 18.8916 68.1354 18.8916 67.7609C18.8916 67.3864 18.7765 67.0209 18.5619 66.7139C18.3473 66.407 18.0436 66.1734 17.6919 66.0447C17.0763 65.8153 16.5457 65.4032 16.1709 64.8636C15.7962 64.3241 15.5954 63.6829 15.5954 63.026C15.5954 62.3691 15.7962 61.7279 16.1709 61.1883C16.5457 60.6488 17.0763 60.2366 17.6919 60.0072C18.0425 59.8769 18.3452 59.643 18.5596 59.3364C18.7739 59.0299 18.8898 58.6653 18.8919 58.2912C18.8919 57.5258 18.4186 56.8392 17.714 56.5827C17.0862 56.3534 16.5452 55.9348 16.1657 55.3847C15.7862 54.8345 15.587 54.1801 15.5956 53.5118C15.6181 51.7598 17.0844 50.3348 18.8641 50.3348H94.7641C96.5439 50.3348 98.0101 51.7598 98.033 53.5118C98.0413 54.1799 97.8419 54.834 97.4625 55.3838C97.083 55.9336 96.5421 56.352 95.9146 56.5812C95.21 56.8377 94.7367 57.5243 94.7367 58.2897C94.7388 58.6638 94.8548 59.0283 95.0691 59.3349C95.2835 59.6414 95.5861 59.8754 95.9368 60.0057C96.5524 60.235 97.0833 60.647 97.4582 61.1866C97.833 61.7262 98.0339 62.3675 98.0339 63.0245C98.0339 63.6815 97.833 64.3227 97.4582 64.8623C97.0833 65.4019 96.5524 65.8139 95.9368 66.0432C95.5852 66.172 95.2816 66.4057 95.0672 66.7126C94.8528 67.0196 94.7378 67.385 94.7378 67.7594C94.7378 68.1338 94.8528 68.4992 95.0672 68.8062C95.2816 69.1131 95.5852 69.3468 95.9368 69.4756C96.5526 69.7045 97.0836 70.1163 97.4587 70.6557C97.8339 71.1951 98.0351 71.8363 98.0354 72.4933C98.0357 73.1503 97.8352 73.7917 97.4606 74.3314C97.086 74.8712 96.5553 75.2835 95.9398 75.5131L95.9341 75.5153C95.5829 75.6445 95.2797 75.8783 95.0657 76.1853C94.8516 76.4923 94.737 76.8576 94.7373 77.2319C94.7376 77.6061 94.8528 77.9713 95.0673 78.2779C95.2818 78.5846 95.5853 78.818 95.9368 78.9466C96.5524 79.1759 97.0833 79.5879 97.4582 80.1275C97.833 80.6671 98.0339 81.3083 98.0339 81.9653C98.0339 82.6223 97.833 83.2636 97.4582 83.8032C97.0833 84.3428 96.5524 84.7548 95.9368 84.9841C95.5861 85.1144 95.2835 85.3484 95.0691 85.6549C94.8548 85.9615 94.7388 86.326 94.7367 86.7001C94.7367 87.4655 95.21 88.1521 95.9146 88.4086C96.5421 88.6378 97.083 89.0562 97.4625 89.606C97.8419 90.1558 98.0413 90.8099 98.033 91.478C98.0101 93.23 96.5439 94.655 94.7645 94.655L18.8641 94.6553Z" fill="#A1E7FF"/>
    <path d="M94.7624 51.0293C96.1646 51.0293 97.3199 52.1472 97.3376 53.5216C97.3442 54.0458 97.1878 54.5591 96.8901 54.9906C96.5924 55.422 96.168 55.7504 95.6756 55.9302C94.6979 56.2857 94.0409 57.2345 94.0409 58.2905C94.0433 58.8057 94.2025 59.308 94.4972 59.7307C94.7919 60.1534 95.2083 60.4763 95.6909 60.6567C96.1741 60.8366 96.5907 61.1599 96.8848 61.5833C97.179 62.0066 97.3366 62.5099 97.3366 63.0254C97.3366 63.5409 97.179 64.0441 96.8848 64.4675C96.5907 64.8909 96.1741 65.2142 95.6909 65.3941C95.2065 65.5721 94.7884 65.8944 94.493 66.3176C94.1977 66.7408 94.0393 67.2445 94.0393 67.7605C94.0393 68.2766 94.1977 68.7802 94.493 69.2034C94.7884 69.6266 95.2065 69.949 95.6909 70.127C96.174 70.3069 96.5904 70.6302 96.8845 71.0535C97.1785 71.4769 97.3361 71.98 97.3361 72.4955C97.3361 73.0109 97.1785 73.514 96.8845 73.9374C96.5904 74.3607 96.174 74.684 95.6909 74.864H95.6883C95.2044 75.0424 94.7868 75.365 94.492 75.7883C94.1972 76.2115 94.0393 76.715 94.0395 77.2307C94.0398 77.7465 94.1983 78.2498 94.4936 78.6727C94.7889 79.0956 95.2068 79.4178 95.6909 79.5957C96.1741 79.7756 96.5907 80.0989 96.8848 80.5223C97.179 80.9456 97.3366 81.4489 97.3366 81.9644C97.3366 82.4799 97.179 82.9831 96.8848 83.4065C96.5907 83.8299 96.1741 84.1532 95.6909 84.3331C95.2082 84.5134 94.7919 84.8364 94.4971 85.259C94.2024 85.6817 94.0433 86.1841 94.0409 86.6993C94.0409 87.7553 94.6979 88.7041 95.6756 89.0596C96.168 89.2394 96.5924 89.5678 96.8901 89.9992C97.1878 90.4307 97.3442 90.944 97.3376 91.4682C97.3199 92.8426 96.1646 93.9605 94.7628 93.9605H18.8628C17.4607 93.9605 16.3057 92.8426 16.2881 91.4682C16.2818 90.9442 16.4385 90.4313 16.7364 90.0002C17.0343 89.5691 17.4588 89.2412 17.9512 89.0618C18.9284 88.7063 19.5854 87.7576 19.5854 86.7016C19.583 86.1863 19.4239 85.684 19.1292 85.2613C18.8344 84.8387 18.4181 84.5157 17.9354 84.3353C17.4523 84.1555 17.0357 83.8322 16.7415 83.4088C16.4474 82.9854 16.2897 82.4822 16.2897 81.9666C16.2897 81.4511 16.4474 80.9479 16.7415 80.5245C17.0357 80.1011 17.4523 79.7778 17.9354 79.598C18.4197 79.4198 18.8376 79.0974 19.1328 78.6742C19.428 78.251 19.5863 77.7475 19.5863 77.2315C19.5863 76.7155 19.428 76.212 19.1328 75.7888C18.8376 75.3656 18.4197 75.0432 17.9354 74.8651C17.4524 74.6851 17.0359 74.3618 16.7419 73.9385C16.4478 73.5152 16.2902 73.012 16.2902 72.4966C16.2902 71.9811 16.4478 71.478 16.7419 71.0547C17.0359 70.6313 17.4524 70.308 17.9354 70.1281C18.4197 69.9499 18.8376 69.6275 19.1328 69.2043C19.428 68.7812 19.5863 68.2776 19.5863 67.7616C19.5863 67.2457 19.428 66.7421 19.1328 66.3189C18.8376 65.8958 18.4197 65.5734 17.9354 65.3952C17.4523 65.2153 17.0357 64.892 16.7415 64.4687C16.4474 64.0453 16.2897 63.5421 16.2897 63.0265C16.2897 62.511 16.4474 62.0078 16.7415 61.5844C17.0357 61.161 17.4523 60.8377 17.9354 60.6578C18.4181 60.4774 18.8344 60.1544 19.1291 59.7318C19.4238 59.3091 19.583 58.8068 19.5854 58.2916C19.5854 57.2356 18.9284 56.2868 17.9512 55.9313C17.4587 55.7516 17.0342 55.4233 16.7364 54.9918C16.4387 54.5603 16.2824 54.0469 16.2892 53.5227C16.3068 52.1483 17.4618 51.0305 18.8639 51.0305H94.7639M94.7639 49.643H18.8639C17.8291 49.6407 16.8345 50.0431 16.0923 50.7642C15.7218 51.119 15.4257 51.5441 15.2213 52.0147C15.0168 52.4852 14.9082 52.9917 14.9017 53.5047C14.8914 54.3167 15.1337 55.1118 15.595 55.7801C16.0564 56.4484 16.7139 56.9569 17.4768 57.2352C17.9081 57.392 18.1979 57.8168 18.1979 58.2916C18.1963 58.5241 18.124 58.7506 17.9904 58.941C17.8569 59.1314 17.6686 59.2766 17.4506 59.3573C16.7022 59.636 16.057 60.1369 15.6014 60.7927C15.1458 61.4485 14.9016 62.228 14.9016 63.0265C14.9016 63.8251 15.1458 64.6045 15.6014 65.2603C16.057 65.9162 16.7022 66.417 17.4506 66.6957C17.6695 66.7752 17.8586 66.9201 17.9923 67.1108C18.1259 67.3015 18.1976 67.5288 18.1976 67.7616C18.1976 67.9945 18.1259 68.2218 17.9923 68.4125C17.8586 68.6032 17.6695 68.7481 17.4506 68.8276C16.7022 69.1062 16.0569 69.607 15.6013 70.2628C15.1456 70.9186 14.9015 71.698 14.9015 72.4966C14.9015 73.2951 15.1456 74.0746 15.6013 74.7304C16.0569 75.3862 16.7022 75.887 17.4506 76.1656C17.6695 76.2451 17.8586 76.39 17.9923 76.5807C18.1259 76.7714 18.1976 76.9986 18.1976 77.2315C18.1976 77.4644 18.1259 77.6916 17.9923 77.8823C17.8586 78.0731 17.6695 78.218 17.4506 78.2975C16.7022 78.5761 16.057 79.077 15.6014 79.7328C15.1458 80.3886 14.9016 81.1681 14.9016 81.9666C14.9016 82.7652 15.1458 83.5446 15.6014 84.2005C16.057 84.8563 16.7022 85.3571 17.4506 85.6358C17.6683 85.7164 17.8563 85.8613 17.9898 86.0512C18.1233 86.2412 18.1959 86.4672 18.1979 86.6993C18.1979 87.1741 17.9081 87.5993 17.4764 87.7557C16.7136 88.034 16.0561 88.5425 15.5948 89.2108C15.1336 89.8791 14.8914 90.6742 14.9017 91.4862C14.9082 91.9992 15.0168 92.5057 15.2213 92.9762C15.4257 93.4468 15.7218 93.8719 16.0923 94.2267C16.8345 94.9478 17.8291 95.3502 18.8639 95.348H94.7639C95.7986 95.3501 96.7931 94.9477 97.5352 94.2267C97.9058 93.8719 98.202 93.4468 98.4064 92.9763C98.6109 92.5058 98.7196 91.9992 98.7262 91.4862C98.7363 90.6742 98.494 89.8792 98.0327 89.2109C97.5714 88.5426 96.9139 88.0341 96.1511 87.7557C95.7198 87.599 95.4296 87.1741 95.4296 86.6993C95.4313 86.4668 95.5037 86.2402 95.6373 86.0499C95.7708 85.8595 95.9592 85.7143 96.1773 85.6336C96.9258 85.3551 97.5712 84.8543 98.0269 84.1984C98.4827 83.5426 98.7269 82.763 98.7269 81.9644C98.7269 81.1658 98.4827 80.3862 98.0269 79.7304C97.5712 79.0745 96.9258 78.5737 96.1773 78.2952C95.9585 78.2159 95.7695 78.0712 95.6358 77.8808C95.5021 77.6903 95.4302 77.4633 95.43 77.2306C95.4297 76.9979 95.5011 76.7708 95.6344 76.58C95.7677 76.3893 95.9565 76.2442 96.1751 76.1645H96.1777H96.1803H96.1822C96.9299 75.8851 97.5744 75.3839 98.0292 74.728C98.484 74.0721 98.7275 73.2928 98.727 72.4946C98.7265 71.6965 98.4821 70.9175 98.0264 70.2622C97.5708 69.6068 96.9257 69.1064 96.1777 68.828C95.9586 68.7487 95.7693 68.6038 95.6355 68.4131C95.5017 68.2223 95.4299 67.995 95.4299 67.762C95.4299 67.529 95.5017 67.3017 95.6355 67.111C95.7693 66.9203 95.9586 66.7754 96.1777 66.6961C96.926 66.4174 97.5713 65.9165 98.0268 65.2607C98.4824 64.6049 98.7266 63.8254 98.7266 63.0269C98.7266 62.2283 98.4824 61.4489 98.0268 60.7931C97.5713 60.1372 96.926 59.6364 96.1777 59.3577C95.9596 59.277 95.7712 59.1318 95.6376 58.9414C95.5041 58.751 95.4316 58.5245 95.4299 58.292C95.4279 58.0633 95.4959 57.8394 95.6249 57.6505C95.7539 57.4617 95.9377 57.3169 96.1514 57.2356C96.9143 56.9572 97.5717 56.4487 98.0331 55.7804C98.4944 55.1121 98.7367 54.3171 98.7266 53.5051C98.72 52.9921 98.6113 52.4855 98.4068 52.015C98.2023 51.5445 97.9061 51.1194 97.5356 50.7646C96.7934 50.0435 95.7987 49.6411 94.7639 49.6433V49.643Z" fill="#3B5C91"/>
    <g style="mix-blend-mode:color-burn">
    <path d="M24.8849 90.8026C23.8501 90.8048 22.8555 90.4024 22.1133 89.6813C21.7428 89.3265 21.4467 88.9014 21.2423 88.4309C21.0378 87.9603 20.9292 87.4538 20.9227 86.9408C20.9127 86.1291 21.155 85.3343 21.6163 84.6663C22.0775 83.9983 22.7348 83.4901 23.4974 83.2118C23.7113 83.1306 23.8951 82.9857 24.0241 82.7967C24.1531 82.6078 24.2211 82.3839 24.2189 82.1551C24.2172 81.9226 24.1448 81.6961 24.0113 81.5057C23.8778 81.3154 23.6896 81.1701 23.4716 81.0893C22.7232 80.8107 22.0779 80.3099 21.6223 79.6541C21.1666 78.9983 20.9225 78.2189 20.9225 77.4203C20.9225 76.6218 21.1666 75.8423 21.6223 75.1865C22.0779 74.5307 22.7232 74.0299 23.4716 73.7513C23.6905 73.6719 23.8796 73.5269 24.0133 73.3362C24.1469 73.1455 24.2186 72.9183 24.2186 72.6854C24.2186 72.4525 24.1469 72.2253 24.0133 72.0346C23.8796 71.8438 23.6905 71.6989 23.4716 71.6194C22.7232 71.3408 22.0779 70.8401 21.6223 70.1842C21.1666 69.5284 20.9225 68.749 20.9225 67.9504C20.9225 67.1519 21.1666 66.3724 21.6223 65.7166C22.0779 65.0608 22.7232 64.56 23.4716 64.2814C23.6906 64.2021 23.8799 64.0571 24.0136 63.8664C24.1474 63.6756 24.2191 63.4483 24.2191 63.2153C24.2191 62.9823 24.1474 62.755 24.0136 62.5643C23.8799 62.3735 23.6906 62.2286 23.4716 62.1492C22.7232 61.8706 22.0779 61.3698 21.6223 60.714C21.1666 60.0582 20.9225 59.2787 20.9225 58.4802C20.9225 57.6816 21.1666 56.9022 21.6223 56.2464C22.0779 55.5906 22.7232 55.0898 23.4716 54.8112C23.6896 54.7304 23.8779 54.5852 24.0114 54.3948C24.1449 54.2045 24.2173 53.978 24.2189 53.7454C24.2189 53.2703 23.9291 52.8454 23.4978 52.6891C22.8449 52.4507 22.2672 52.043 21.8238 51.5078C21.3803 50.9726 21.0872 50.3291 20.9744 49.6433H18.8639C17.8291 49.6411 16.8345 50.0435 16.0923 50.7646C15.7218 51.1194 15.4257 51.5445 15.2213 52.015C15.0168 52.4856 14.9082 52.9921 14.9017 53.5051C14.8914 54.3171 15.1337 55.1122 15.595 55.7805C16.0564 56.4488 16.7139 56.9573 17.4768 57.2356C17.9081 57.3923 18.1979 57.8172 18.1979 58.2919C18.1963 58.5245 18.124 58.751 17.9904 58.9414C17.8569 59.1318 17.6686 59.277 17.4506 59.3577C16.7022 59.6364 16.057 60.1372 15.6014 60.7931C15.1458 61.4489 14.9016 62.2283 14.9016 63.0269C14.9016 63.8254 15.1458 64.6049 15.6014 65.2607C16.057 65.9165 16.7022 66.4174 17.4506 66.6961C17.6695 66.7755 17.8586 66.9205 17.9923 67.1112C18.1259 67.3019 18.1976 67.5291 18.1976 67.762C18.1976 67.9949 18.1259 68.2221 17.9923 68.4128C17.8586 68.6035 17.6695 68.7485 17.4506 68.8279C16.7022 69.1065 16.0569 69.6073 15.6013 70.2631C15.1456 70.9189 14.9015 71.6984 14.9015 72.4969C14.9015 73.2955 15.1456 74.0749 15.6013 74.7307C16.0569 75.3866 16.7022 75.8873 17.4506 76.1659C17.6695 76.2454 17.8586 76.3903 17.9923 76.5811C18.1259 76.7718 18.1976 76.999 18.1976 77.2319C18.1976 77.4648 18.1259 77.692 17.9923 77.8827C17.8586 78.0734 17.6695 78.2184 17.4506 78.2978C16.7022 78.5765 16.057 79.0774 15.6014 79.7332C15.1458 80.389 14.9016 81.1685 14.9016 81.967C14.9016 82.7655 15.1458 83.545 15.6014 84.2008C16.057 84.8567 16.7022 85.3575 17.4506 85.6362C17.6682 85.7168 17.8562 85.8616 17.9897 86.0514C18.1232 86.2413 18.1958 86.4672 18.1979 86.6993C18.1979 87.1741 17.9081 87.5993 17.4764 87.7557C16.7136 88.034 16.0561 88.5425 15.5948 89.2108C15.1336 89.8791 14.8914 90.6742 14.9017 91.4862C14.9082 91.9992 15.0168 92.5057 15.2213 92.9762C15.4257 93.4468 15.7218 93.8719 16.0923 94.2267C16.8345 94.9478 17.8291 95.3502 18.8639 95.3479H94.7639C95.7986 95.3501 96.7931 94.9477 97.5352 94.2267C97.9058 93.8719 98.202 93.4468 98.4064 92.9763C98.6109 92.5058 98.7196 91.9992 98.7262 91.4862C98.7289 91.2569 98.7115 91.0277 98.6741 90.8014L24.8849 90.8026Z" fill="#B3B3B3"/>
    </g>
    <path d="M35 76.754V75.6194H41.8266V76.754H39.0744V84.355H37.7479V76.754H35Z" fill="black"/>
    <path d="M44.666 75.6194V84.355H43.3351V75.6194H44.666Z" fill="black"/>
    <path d="M53.9304 78.4602H52.5866C52.5349 78.1758 52.4387 77.9256 52.298 77.7095C52.1573 77.4934 51.985 77.31 51.7812 77.1592C51.5773 77.0085 51.349 76.8948 51.0963 76.818C50.8465 76.7412 50.5809 76.7028 50.2996 76.7028C49.7913 76.7028 49.3362 76.8294 48.9342 77.0825C48.5351 77.3355 48.2193 77.7066 47.9867 78.1957C47.757 78.6848 47.6421 79.282 47.6421 79.9872C47.6421 80.6981 47.757 81.2981 47.9867 81.7872C48.2193 82.2763 48.5366 82.646 48.9385 82.8962C49.3405 83.1464 49.7928 83.2716 50.2952 83.2716C50.5738 83.2716 50.8379 83.2346 51.0877 83.1607C51.3404 83.0839 51.5687 82.9716 51.7725 82.8237C51.9764 82.6758 52.1487 82.4953 52.2894 82.282C52.433 82.0659 52.532 81.8185 52.5866 81.5398L53.9304 81.5441C53.8586 81.9735 53.7193 82.3687 53.5126 82.7299C53.3087 83.0882 53.046 83.3981 52.7244 83.6597C52.4057 83.9185 52.041 84.119 51.6304 84.2611C51.2198 84.4033 50.7719 84.4744 50.2866 84.4744C49.5229 84.4744 48.8424 84.2953 48.2451 83.937C47.6479 83.5758 47.177 83.0597 46.8324 82.3886C46.4907 81.7175 46.3199 80.9171 46.3199 79.9872C46.3199 79.0545 46.4922 78.254 46.8367 77.5858C47.1813 76.9147 47.6522 76.4 48.2494 76.0417C48.8467 75.6806 49.5257 75.5 50.2866 75.5C50.7547 75.5 51.1911 75.5668 51.596 75.7005C52.0037 75.8313 52.3698 76.0246 52.6942 76.2806C53.0187 76.5336 53.2872 76.8436 53.4997 77.2104C53.7121 77.5744 53.8557 77.991 53.9304 78.4602Z" fill="black"/>
    <path d="M55.5229 84.355V75.6194H56.8537V79.791H56.9614L60.6611 75.6194H62.3365L58.779 79.5521L62.3495 84.355H60.7473L57.896 80.4521L56.8537 81.6379V84.355H55.5229Z" fill="black"/>
    <path d="M63.577 84.355V75.6194H69.1072V76.754H64.9078V79.4156H68.8186V80.546H64.9078V83.2204H69.1588V84.355H63.577Z" fill="black"/>
    <path d="M70.4499 76.754V75.6194H77.2765V76.754H74.5243V84.355H73.1977V76.754H70.4499Z" fill="black"/>
    <path d="M83.5959 77.9142C83.55 77.5104 83.3605 77.1976 83.0274 76.9758C82.6943 76.7512 82.2751 76.6389 81.7697 76.6389C81.408 76.6389 81.095 76.6957 80.8308 76.8095C80.5667 76.9204 80.3614 77.0739 80.2149 77.2701C80.0714 77.4635 79.9996 77.6839 79.9996 77.9313C79.9996 78.1389 80.0484 78.318 80.146 78.4687C80.2465 78.6194 80.3772 78.746 80.5379 78.8483C80.7016 78.9479 80.8768 79.0318 81.0634 79.1C81.25 79.1654 81.4295 79.2194 81.6018 79.2621L82.4632 79.4839C82.7446 79.5521 83.0331 79.6445 83.3289 79.7611C83.6246 79.8777 83.8988 80.0313 84.1515 80.2218C84.4042 80.4123 84.6081 80.6483 84.7631 80.9299C84.921 81.2114 85 81.5483 85 81.9408C85 82.4355 84.8708 82.8749 84.6124 83.2588C84.3568 83.6427 83.985 83.9455 83.4969 84.1673C83.0116 84.3891 82.4244 84.5 81.7353 84.5C81.0749 84.5 80.5035 84.3962 80.0211 84.1886C79.5387 83.981 79.1611 83.6867 78.8884 83.3057C78.6156 82.9218 78.4648 82.4668 78.4361 81.9408H79.7713C79.7971 82.2564 79.9005 82.5194 80.0814 82.7299C80.2652 82.9374 80.4992 83.0924 80.7834 83.1948C81.0706 83.2943 81.385 83.3441 81.7267 83.3441C82.1028 83.3441 82.4373 83.2858 82.7302 83.1692C83.026 83.0498 83.2585 82.8848 83.4279 82.6744C83.5974 82.4611 83.6821 82.2123 83.6821 81.928C83.6821 81.6692 83.6074 81.4573 83.4581 81.2924C83.3117 81.1275 83.1121 80.991 82.8594 80.8829C82.6096 80.7749 82.3268 80.6796 82.0109 80.5972L80.9687 80.3156C80.2623 80.1251 79.7024 79.845 79.2889 79.4754C78.8783 79.1057 78.673 78.6166 78.673 78.0081C78.673 77.5047 78.8108 77.0654 79.0865 76.69C79.3621 76.3147 79.7354 76.0232 80.2063 75.8156C80.6772 75.6052 81.2084 75.5 81.7999 75.5C82.3971 75.5 82.924 75.6038 83.3806 75.8114C83.84 76.019 84.2018 76.3047 84.4659 76.6687C84.7301 77.0299 84.8679 77.445 84.8794 77.9142H83.5959Z" fill="black"/>
    <path d="M59.0889 60.6331V70.3669H57.6991L52.605 63.2281H52.5121V70.3669H51V60.6331H52.3995L57.4985 67.7814H57.5915V60.6331H59.0889Z" fill="black"/>
    <path d="M70 65.5C70 66.5393 69.8043 67.4328 69.4128 68.1806C69.0213 68.9252 68.4847 69.4987 67.8028 69.9011C67.1243 70.3004 66.3528 70.5 65.4882 70.5C64.6205 70.5 63.8457 70.3004 63.1639 69.9011C62.4853 69.4987 61.9503 68.9236 61.5588 68.1759C61.1673 67.4281 60.9716 66.5361 60.9716 65.5C60.9716 64.4607 61.1673 63.5688 61.5588 62.8241C61.9503 62.0764 62.4853 61.5029 63.1639 61.1036C63.8457 60.7012 64.6205 60.5 65.4882 60.5C66.3528 60.5 67.1243 60.7012 67.8028 61.1036C68.4847 61.5029 69.0213 62.0764 69.4128 62.8241C69.8043 63.5688 70 64.4607 70 65.5ZM68.5026 65.5C68.5026 64.7079 68.3705 64.0409 68.1062 63.499C67.8453 62.9541 67.4864 62.5421 67.0297 62.2633C66.5762 61.9813 66.0624 61.8403 65.4882 61.8403C64.9108 61.8403 64.3954 61.9813 63.9419 62.2633C63.4885 62.5421 63.1296 62.9541 62.8654 63.499C62.6044 64.0409 62.4739 64.7079 62.4739 65.5C62.4739 66.2921 62.6044 66.9607 62.8654 67.5057C63.1296 68.0475 63.4885 68.4594 63.9419 68.7414C64.3954 69.0203 64.9108 69.1597 65.4882 69.1597C66.0624 69.1597 66.5762 69.0203 67.0297 68.7414C67.4864 68.4594 67.8453 68.0475 68.1062 67.5057C68.3705 66.9607 68.5026 66.2921 68.5026 65.5Z" fill="black"/>
</svg>
